<svg width="38" height="38" viewBox="0 0 38 38" fill="none" xmlns="http://www.w3.org/2000/svg">
<path d="M10.2923 14.25H8.70898M16.6257 14.25H15.0423M10.2923 9.5H8.70898M16.6257 9.5H15.0423M29.2923 23.75H27.709M29.2923 17.4167H27.709" stroke="#3425FF" stroke-width="1.81364" stroke-linecap="round"/>
<path d="M22.167 12.666V34.8327H28.5003C31.4865 34.8327 32.978 34.8327 33.9058 33.9048C34.8337 32.977 34.8337 31.4855 34.8337 28.4993V18.9993C34.8337 16.0132 34.8337 14.5217 33.9058 13.5938C32.978 12.666 31.4865 12.666 28.5003 12.666H22.167ZM22.167 12.666C22.167 8.18835 22.167 5.94793 20.7752 4.55777C19.3851 3.16602 17.1447 3.16602 12.667 3.16602C8.18933 3.16602 5.94891 3.16602 4.55874 4.55777C3.16699 5.94793 3.16699 8.18835 3.16699 12.666V15.8327" stroke="#3425FF" stroke-width="1.81364" stroke-linecap="round" stroke-linejoin="round"/>
<path d="M12.7064 22.0945C12.7156 22.5162 12.6405 22.9355 12.4854 23.3278C12.3303 23.7201 12.0985 24.0774 11.8034 24.3789C11.5084 24.6803 11.156 24.9197 10.7672 25.0832C10.3783 25.2466 9.96069 25.3306 9.53888 25.3304C9.11707 25.3302 8.69955 25.2457 8.31084 25.0819C7.92213 24.9181 7.57006 24.6783 7.27529 24.3766C6.98053 24.0749 6.74902 23.7173 6.59436 23.3249C6.43969 22.9324 6.36498 22.5131 6.37462 22.0914C6.39353 21.264 6.7356 20.4769 7.32759 19.8986C7.91958 19.3202 8.71445 18.9967 9.54205 18.9971C10.3696 18.9975 11.1642 19.3219 11.7556 19.9008C12.347 20.4797 12.6883 21.2671 12.7064 22.0945ZM3.27762 31.9983C4.95279 29.4206 7.61437 28.4548 9.53971 28.4564C11.465 28.4579 14.0475 29.4206 15.7242 31.9983C15.8319 32.1645 15.862 32.3704 15.7638 32.543C15.3727 33.238 14.1551 34.6171 13.278 34.709C12.2662 34.8166 9.62521 34.8325 9.54129 34.8325C9.45737 34.8325 6.73404 34.8166 5.72545 34.709C4.84512 34.6155 3.62912 33.238 3.23645 32.543C3.1924 32.4572 3.17293 32.3609 3.1802 32.2648C3.18746 32.1687 3.22118 32.0764 3.27762 31.9983Z" stroke="#3425FF" stroke-width="1.81364" stroke-linecap="round"/>
</svg>
