<svg width="28" height="28" viewBox="0 0 28 28" fill="none" xmlns="http://www.w3.org/2000/svg">
<rect x="0.241379" y="0.241379" width="27.5172" height="27.5172" rx="13.7586" stroke="#B7B7B7" stroke-width="0.482759"/>
<path d="M14.0029 19.6665L14.0002 13.6665M19.5062 17.4385C20.04 17.0632 20.4404 16.5274 20.6491 15.9091C20.8578 15.2908 20.864 14.622 20.6669 13.9999C20.2625 12.7232 19.0235 12.0235 17.6845 12.0249H16.9109C16.7263 11.3051 16.3807 10.6366 15.9003 10.0696C15.4199 9.50269 14.8172 9.05213 14.1375 8.75187C13.4577 8.45162 12.7187 8.30949 11.9761 8.33618C11.2335 8.36287 10.5066 8.5577 9.85019 8.90598C9.19376 9.25426 8.62491 9.74693 8.18646 10.3469C7.74801 10.9469 7.45138 11.6385 7.31891 12.3697C7.18645 13.1009 7.2216 13.8526 7.42171 14.5682C7.62182 15.2839 7.98169 15.9448 8.47421 16.5012" stroke="#9F9F9F" stroke-width="1.5" stroke-linecap="round" stroke-linejoin="round"/>
<path d="M16.1216 15.2122L14.0002 13.0908L11.8789 15.2122" stroke="#9F9F9F" stroke-width="1.5" stroke-linecap="round" stroke-linejoin="round"/>
</svg>
