<svg width="38" height="38" viewBox="0 0 38 38" fill="none" xmlns="http://www.w3.org/2000/svg">
<path fill-rule="evenodd" clip-rule="evenodd" d="M10.5132 15.4964C10.8172 15.578 11.0762 15.777 11.2336 16.0495C11.3909 16.322 11.4337 16.6459 11.3524 16.9499C10.9471 18.4624 10.9995 20.0611 11.5028 21.5438C12.0062 23.0265 12.9379 24.3266 14.1802 25.2798C15.4225 26.233 16.9196 26.7963 18.482 26.8986C20.0445 27.0009 21.6023 26.6376 22.9582 25.8546C23.0934 25.7766 23.2426 25.726 23.3973 25.7057C23.552 25.6854 23.7092 25.6957 23.8599 25.7362C24.0106 25.7766 24.1518 25.8463 24.2756 25.9413C24.3993 26.0364 24.5032 26.1548 24.5811 26.29C24.6591 26.4251 24.7097 26.5743 24.73 26.729C24.7503 26.8837 24.74 27.0409 24.6996 27.1916C24.6591 27.3423 24.5894 27.4836 24.4944 27.6073C24.3994 27.7311 24.2809 27.8349 24.1457 27.9129C22.3828 28.9302 20.3578 29.402 18.3268 29.2686C16.2957 29.1352 14.3498 28.4027 12.735 27.1636C11.1203 25.9245 9.90909 24.2345 9.25462 22.3071C8.60016 20.3798 8.53179 18.3017 9.05815 16.3356C9.09856 16.1849 9.16826 16.0437 9.26327 15.92C9.35827 15.7963 9.47672 15.6925 9.61184 15.6145C9.74697 15.5366 9.89612 15.4861 10.0508 15.4658C10.2054 15.4455 10.3626 15.4559 10.5132 15.4964ZM13.8541 10.0846C15.6169 9.06647 17.6422 8.59406 19.6735 8.72708C21.7049 8.8601 23.6513 9.59258 25.2663 10.8319C26.8814 12.0712 28.0926 13.7616 28.7468 15.6894C29.401 17.6171 29.4688 19.6956 28.9416 21.6619C28.8602 21.9664 28.6611 22.226 28.3882 22.3836C28.1154 22.5413 27.791 22.5841 27.4866 22.5027C27.1821 22.4212 26.9225 22.2221 26.7648 21.9492C26.6072 21.6764 26.5644 21.352 26.6458 21.0476C27.05 19.5354 26.9969 17.9375 26.4934 16.4555C25.9898 14.9735 25.0583 13.674 23.8166 12.7211C22.5748 11.7682 21.0785 11.2048 19.5167 11.1018C17.9549 10.9989 16.3976 11.3612 15.0416 12.1429C14.7686 12.3004 14.4443 12.343 14.1399 12.2613C13.8356 12.1797 13.5761 11.9804 13.4187 11.7075C13.2612 11.4345 13.2186 11.1102 13.3002 10.8059C13.3819 10.5015 13.5811 10.242 13.8541 10.0846Z" fill="#3425FF"/>
<path fill-rule="evenodd" clip-rule="evenodd" d="M9.05634 14.9938C9.279 14.7714 9.58082 14.6465 9.89551 14.6465C10.2102 14.6465 10.512 14.7714 10.7347 14.9938L14.693 18.9521C14.8097 19.0608 14.9033 19.1919 14.9682 19.3376C15.0331 19.4833 15.068 19.6405 15.0708 19.7999C15.0736 19.9594 15.0443 20.1178 14.9845 20.2656C14.9248 20.4135 14.8359 20.5478 14.7232 20.6606C14.6104 20.7733 14.4761 20.8622 14.3282 20.922C14.1803 20.9817 14.022 21.011 13.8625 21.0082C13.7031 21.0054 13.5458 20.9705 13.4002 20.9056C13.2545 20.8407 13.1234 20.7471 13.0147 20.6304L9.89551 17.5113L6.77634 20.6304C6.55123 20.8402 6.25349 20.9544 5.94585 20.949C5.6382 20.9435 5.34468 20.8189 5.12711 20.6013C4.90954 20.3838 4.78491 20.0902 4.77948 19.7826C4.77405 19.475 4.88825 19.1772 5.09801 18.9521L9.05634 14.9938ZM23.3063 17.3688C23.529 17.1464 23.8308 17.0215 24.1455 17.0215C24.4602 17.0215 24.762 17.1464 24.9847 17.3688L28.1038 20.4879L31.223 17.3688C31.3317 17.2521 31.4628 17.1585 31.6085 17.0936C31.7542 17.0287 31.9114 16.9938 32.0709 16.991C32.2303 16.9882 32.3887 17.0175 32.5365 17.0772C32.6844 17.137 32.8187 17.2259 32.9315 17.3386C33.0443 17.4514 33.1331 17.5857 33.1929 17.7336C33.2526 17.8814 33.2819 18.0398 33.2791 18.1993C33.2763 18.3587 33.2414 18.516 33.1765 18.6616C33.1116 18.8073 33.018 18.9384 32.9013 19.0471L28.943 23.0054C28.7204 23.2278 28.4185 23.3527 28.1038 23.3527C27.7892 23.3527 27.4873 23.2278 27.2647 23.0054L23.3063 19.0471C23.084 18.8244 22.9591 18.5226 22.9591 18.2079C22.9591 17.8933 23.084 17.5914 23.3063 17.3688Z" fill="#3425FF"/>
</svg>
