<svg width="20" height="22" viewBox="0 0 20 22" fill="none" xmlns="http://www.w3.org/2000/svg">
<path fill-rule="evenodd" clip-rule="evenodd" d="M4.41957 10.051C4.60086 10.0997 4.7554 10.2183 4.84926 10.3809C4.94311 10.5435 4.9686 10.7366 4.92013 10.918C4.67839 11.8201 4.70962 12.7737 5.00987 13.6582C5.31011 14.5426 5.86589 15.3181 6.60691 15.8867C7.34792 16.4552 8.2409 16.7913 9.1729 16.8523C10.1049 16.9133 11.0341 16.6966 11.8429 16.2295C11.9235 16.183 12.0125 16.1528 12.1048 16.1407C12.1971 16.1286 12.2908 16.1348 12.3807 16.1589C12.4706 16.183 12.5549 16.2246 12.6287 16.2813C12.7025 16.338 12.7645 16.4086 12.811 16.4892C12.8575 16.5699 12.8876 16.6589 12.8998 16.7511C12.9119 16.8434 12.9057 16.9372 12.8816 17.0271C12.8575 17.117 12.8159 17.2012 12.7592 17.275C12.7025 17.3489 12.6319 17.4108 12.5512 17.4573C11.4997 18.0641 10.2918 18.3455 9.08028 18.2659C7.86878 18.1864 6.70807 17.7494 5.74487 17.0103C4.78166 16.2712 4.05921 15.2631 3.66882 14.1135C3.27844 12.9639 3.23766 11.7243 3.55163 10.5515C3.57574 10.4617 3.61731 10.3774 3.67398 10.3036C3.73065 10.2298 3.8013 10.1679 3.8819 10.1214C3.9625 10.075 4.05147 10.0448 4.14373 10.0327C4.23598 10.0206 4.32972 10.0268 4.41957 10.051ZM6.41235 6.82286C7.46389 6.21557 8.67191 5.93378 9.88362 6.01312C11.0953 6.09247 12.2563 6.52939 13.2197 7.26862C14.183 8.00785 14.9055 9.01618 15.2957 10.1661C15.686 11.316 15.7264 12.5558 15.412 13.7286C15.3634 13.9102 15.2446 14.0651 15.0819 14.1591C14.9191 14.2532 14.7256 14.2787 14.544 14.2301C14.3624 14.1815 14.2076 14.0628 14.1135 13.9C14.0195 13.7373 13.9939 13.5438 14.0425 13.3622C14.2836 12.4602 14.2519 11.507 13.9516 10.623C13.6512 9.73904 13.0956 8.9639 12.3549 8.39552C11.6142 7.82715 10.7217 7.49104 9.79007 7.42965C8.85846 7.36827 7.92955 7.58436 7.12069 8.05064C6.95787 8.14457 6.76441 8.16997 6.58287 8.12127C6.40132 8.07256 6.24656 7.95373 6.15263 7.79091C6.0587 7.6281 6.03329 7.43464 6.082 7.2531C6.13071 7.07155 6.24954 6.91679 6.41235 6.82286Z" fill="white"/>
<path fill-rule="evenodd" clip-rule="evenodd" d="M3.55122 9.75012C3.68403 9.61748 3.86407 9.54297 4.05178 9.54297C4.23948 9.54297 4.41952 9.61748 4.55233 9.75012L6.91344 12.1112C6.98304 12.1761 7.03885 12.2543 7.07757 12.3412C7.11628 12.4281 7.1371 12.5219 7.13878 12.617C7.14046 12.7121 7.12296 12.8065 7.08734 12.8947C7.05171 12.9829 6.99868 13.0631 6.93142 13.1303C6.86416 13.1976 6.78404 13.2506 6.69584 13.2862C6.60764 13.3219 6.51317 13.3394 6.41806 13.3377C6.32295 13.336 6.22916 13.3152 6.14227 13.2765C6.05538 13.2378 5.97718 13.1819 5.91233 13.1123L4.05178 11.2518L2.19122 13.1123C2.05694 13.2375 1.87934 13.3056 1.69584 13.3023C1.51233 13.2991 1.33725 13.2248 1.20747 13.095C1.07769 12.9652 1.00335 12.7901 1.00011 12.6066C0.996873 12.4231 1.06499 12.2455 1.19011 12.1112L3.55122 9.75012ZM12.0512 11.1668C12.184 11.0341 12.3641 10.9596 12.5518 10.9596C12.7395 10.9596 12.9195 11.0341 13.0523 11.1668L14.9129 13.0273L16.7734 11.1668C16.8383 11.0972 16.9165 11.0414 17.0034 11.0027C17.0903 10.9639 17.1841 10.9431 17.2792 10.9415C17.3743 10.9398 17.4688 10.9573 17.557 10.9929C17.6452 11.0285 17.7253 11.0815 17.7925 11.1488C17.8598 11.2161 17.9128 11.2962 17.9484 11.3844C17.9841 11.4726 18.0016 11.5671 17.9999 11.6622C17.9982 11.7573 17.9774 11.8511 17.9387 11.938C17.9 12.0249 17.8441 12.1031 17.7746 12.1679L15.4134 14.529C15.2806 14.6617 15.1006 14.7362 14.9129 14.7362C14.7252 14.7362 14.5451 14.6617 14.4123 14.529L12.0512 12.1679C11.9186 12.0351 11.8441 11.8551 11.8441 11.6673C11.8441 11.4796 11.9186 11.2996 12.0512 11.1668Z" fill="white"/>
</svg>
