<svg width="78" height="78" viewBox="0 0 78 78" fill="none" xmlns="http://www.w3.org/2000/svg">
<path d="M36.5268 3.60251C37.7186 1.86646 40.2814 1.86646 41.4732 3.60251L45.6378 9.66859C46.4432 10.8417 47.9619 11.2876 49.2737 10.7362L56.0567 7.8846C57.9979 7.06851 60.1539 8.45405 60.218 10.5589L60.4418 17.9135C60.4851 19.3358 61.5217 20.5321 62.9233 20.7773L70.1713 22.0456C72.2456 22.4086 73.3102 24.7398 72.2261 26.5451L68.4382 32.8532C67.7057 34.0732 67.931 35.6399 68.9775 36.6041L74.3892 41.5895C75.9379 43.0163 75.5732 45.553 73.6852 46.4857L67.0882 49.7445C65.8124 50.3748 65.1549 51.8146 65.514 53.1915L67.3713 60.3113C67.9028 62.3489 66.2245 64.2857 64.132 64.0496L56.8204 63.2245C55.4064 63.0649 54.0748 63.9207 53.6325 65.2732L51.3457 72.2669C50.6912 74.2684 48.2322 74.9904 46.5996 73.6604L40.8947 69.0134C39.7914 68.1147 38.2086 68.1147 37.1053 69.0134L31.4004 73.6604C29.7678 74.9904 27.3088 74.2684 26.6543 72.2669L24.3675 65.2732C23.9252 63.9207 22.5936 63.0649 21.1796 63.2245L13.868 64.0496C11.7755 64.2857 10.0972 62.3489 10.6287 60.3113L12.486 53.1915C12.8451 51.8146 12.1876 50.3748 10.9118 49.7445L4.31478 46.4857C2.42679 45.553 2.06207 43.0163 3.61083 41.5895L9.02248 36.6041C10.069 35.6399 10.2943 34.0732 9.56177 32.8532L5.77389 26.5451C4.68984 24.7398 5.75445 22.4086 7.82873 22.0456L15.0767 20.7773C16.4783 20.5321 17.5149 19.3358 17.5582 17.9135L17.782 10.5589C17.8461 8.45405 20.0021 7.06851 21.9433 7.8846L28.7263 10.7362C30.0381 11.2876 31.5568 10.8417 32.3622 9.66859L36.5268 3.60251Z" fill="#3425FF"/>
<path d="M37.7637 7.68457C38.3596 6.81681 39.6404 6.81681 40.2363 7.68457L44.6582 14.125C45.3294 15.1026 46.5953 15.4742 47.6885 15.0146L54.8896 11.9873C55.8602 11.5793 56.9385 12.2719 56.9707 13.3242L57.208 21.1328C57.2441 22.3181 58.1083 23.3151 59.2764 23.5195L66.9717 24.8662C68.0088 25.0477 68.541 26.2135 67.999 27.1162L63.9775 33.8135C63.3671 34.8301 63.5546 36.136 64.4268 36.9395L70.1729 42.2324C70.9472 42.9458 70.7643 44.2143 69.8203 44.6807L62.8164 48.1406C61.7532 48.6658 61.2056 49.8663 61.5049 51.0137L63.4766 58.5723C63.7423 59.5911 62.9027 60.5595 61.8564 60.4414L54.0938 59.5654C52.9154 59.4325 51.806 60.1463 51.4375 61.2734L49.0088 68.6982C48.6816 69.699 47.4521 70.0605 46.6357 69.3955L40.5791 64.4609C39.6597 63.7121 38.3403 63.7121 37.4209 64.4609L31.3643 69.3955C30.5479 70.0605 29.3184 69.699 28.9912 68.6982L26.5625 61.2734C26.194 60.1464 25.0846 59.4325 23.9062 59.5654L16.1436 60.4414C15.0973 60.5595 14.2577 59.5911 14.5234 58.5723L16.4951 51.0137C16.7944 49.8663 16.2468 48.6658 15.1836 48.1406L8.17969 44.6807C7.23571 44.2143 7.05283 42.9458 7.82715 42.2324L13.5732 36.9395C14.4454 36.136 14.6329 34.8301 14.0225 33.8135L10.001 27.1162C9.45895 26.2135 9.99118 25.0477 11.0283 24.8662L18.7236 23.5195C19.8917 23.3151 20.7559 22.3181 20.792 21.1328L21.0293 13.3242C21.0615 12.2719 22.1398 11.5793 23.1104 11.9873L30.3115 15.0146C31.4047 15.4742 32.6706 15.1026 33.3418 14.125L37.7637 7.68457Z" fill="#3425FF" stroke="white"/>
<path d="M30.2866 40.0797L35.5283 44.7171C35.9382 45.0797 36.5633 45.0456 36.9312 44.6405L48.4125 31.9983" stroke="white" stroke-width="2.8" stroke-linecap="round"/>
</svg>
