<svg width="28" height="28" viewBox="0 0 28 28" fill="none" xmlns="http://www.w3.org/2000/svg">
<path d="M9.12927 15.1682L14.8459 20.8849C15.0793 21.1182 15.1913 21.3905 15.1819 21.7016C15.1726 22.0127 15.0509 22.2849 14.8168 22.5182C14.5834 22.7321 14.3112 22.8441 14.0001 22.8542C13.689 22.8643 13.4168 22.7523 13.1834 22.5182L5.48343 14.8182C5.36677 14.7016 5.28393 14.5752 5.23493 14.4391C5.18593 14.303 5.16221 14.1571 5.16377 14.0016C5.16532 13.846 5.18982 13.7002 5.23727 13.5641C5.28471 13.428 5.36716 13.3016 5.4846 13.1849L13.1846 5.4849C13.3985 5.27101 13.666 5.16406 13.9873 5.16406C14.3085 5.16406 14.5854 5.27101 14.8179 5.4849C15.0513 5.71823 15.1679 5.99551 15.1679 6.31673C15.1679 6.63795 15.0513 6.91484 14.8179 7.1474L9.12927 12.8349H22.1668C22.4973 12.8349 22.7746 12.9469 22.9986 13.1709C23.2226 13.3949 23.3342 13.6718 23.3334 14.0016C23.3327 14.3313 23.2207 14.6086 22.9974 14.8334C22.7742 15.0582 22.4973 15.1698 22.1668 15.1682H9.12927Z" fill="black"/>
</svg>
