<svg width="26" height="26" viewBox="0 0 26 26" fill="none" xmlns="http://www.w3.org/2000/svg">
<rect x="0.5" y="0.5" width="25" height="25" rx="3.5" fill="white"/>
<rect x="0.5" y="0.5" width="25" height="25" rx="3.5" stroke="#CCCCCC"/>
<g clip-path="url(#clip0_2497_8118)">
<path d="M9.04536 5.33631L9.97896 5.0549C11.037 4.73599 12.1674 5.25138 12.6204 6.25924L13.3418 7.86382C13.728 8.72289 13.5245 9.73249 12.8356 10.3748L11.6402 11.4896C11.6052 11.5222 11.5831 11.5662 11.5778 11.6137C11.5423 11.9314 11.7577 12.5501 12.2539 13.4096C12.6148 14.0346 12.9414 14.4729 13.2193 14.7194C13.413 14.8911 13.5196 14.9283 13.565 14.9148L15.1733 14.4231C16.0738 14.1478 17.0496 14.4761 17.6006 15.2397L18.6252 16.6597C19.2701 17.5534 19.1541 18.7865 18.3539 19.5443L17.6448 20.2158C16.8796 20.9404 15.7904 21.2105 14.7754 20.9272C12.5721 20.3122 10.5967 18.4529 8.82717 15.388C7.05521 12.3189 6.43346 9.67534 7.00662 7.45791C7.26892 6.44312 8.04182 5.63881 9.04536 5.33631ZM9.39168 6.48525C8.78956 6.66675 8.32582 7.14934 8.16844 7.75821C7.68632 9.62342 8.2374 11.9665 9.8664 14.788C11.4932 17.6058 13.2444 19.254 15.098 19.7713C15.707 19.9413 16.3605 19.7793 16.8196 19.3445L17.5287 18.673C17.8925 18.3285 17.9452 17.7681 17.652 17.3618L16.6274 15.9418C16.377 15.5947 15.9334 15.4455 15.5241 15.5706L13.9119 16.0635C12.9761 16.3425 12.1268 15.5893 11.2147 14.0096C10.6 12.945 10.3136 12.122 10.3852 11.4805C10.4223 11.1481 10.5772 10.8401 10.8218 10.612L12.0172 9.49722C12.3303 9.20524 12.4228 8.74633 12.2473 8.35585L11.526 6.75127C11.32 6.29315 10.8062 6.05888 10.3253 6.20384L9.39168 6.48525Z" fill="#3C3C3C"/>
</g>
<defs>
<clipPath id="clip0_2497_8118">
<rect width="16" height="16" fill="white" transform="translate(5 5)"/>
</clipPath>
</defs>
</svg>
